<svg width="179.513" height="72.808" viewBox="0 0 179.513 72.808" xmlns="http://www.w3.org/2000/svg"><g id="svgGroup" stroke-linecap="round" fill-rule="evenodd" font-size="9pt" fill="#726242"><path d="M 11.781 57.38 L 0.001 57.38 L 0.001 34.352 Q 0.001 29.564 2.243 25.726 Q 4.485 21.888 8.665 19.684 Q 12.845 17.48 18.621 17.48 Q 21.509 17.48 23.941 18.126 Q 26.373 18.772 28.387 19.874 Q 30.401 20.976 31.845 22.496 L 31.997 22.496 Q 33.517 20.976 35.531 19.874 Q 37.545 18.772 40.015 18.126 Q 42.485 17.48 45.373 17.48 Q 51.149 17.48 55.329 19.684 Q 59.509 21.888 61.789 25.726 Q 64.069 29.564 64.069 34.352 L 64.069 57.38 L 52.213 57.38 L 52.213 34.732 Q 52.213 32.832 51.263 31.274 Q 50.313 29.716 48.717 28.728 Q 47.121 27.74 45.069 27.74 Q 43.017 27.74 41.383 28.728 Q 39.749 29.716 38.837 31.274 Q 37.925 32.832 37.925 34.732 L 37.925 57.38 L 26.145 57.38 L 26.145 34.732 Q 26.145 32.832 25.195 31.274 Q 24.245 29.716 22.611 28.728 Q 20.977 27.74 18.925 27.74 Q 16.873 27.74 15.239 28.728 Q 13.605 29.716 12.693 31.274 Q 11.781 32.832 11.781 34.732 L 11.781 57.38 Z M 166.137 72.808 L 154.357 72.808 L 154.357 57.608 Q 150.101 56.544 147.061 54.15 Q 144.021 51.756 142.425 48.298 Q 140.829 44.84 140.829 40.812 L 140.829 18.392 L 152.609 18.392 L 152.609 40.432 Q 152.609 42.484 153.597 44.232 Q 154.585 45.98 156.295 47.006 Q 158.005 48.032 160.133 48.032 Q 162.337 48.032 164.047 47.006 Q 165.757 45.98 166.745 44.232 Q 167.733 42.484 167.733 40.432 L 167.733 18.392 L 179.513 18.392 L 179.513 40.812 Q 179.513 44.84 177.955 48.26 Q 176.397 51.68 173.395 54.112 Q 170.393 56.544 166.137 57.532 L 166.137 72.808 Z M 73.265 72.808 L 62.093 72.808 L 62.093 62.7 L 70.377 62.7 Q 71.517 62.7 72.239 61.978 Q 72.961 61.256 72.961 60.192 L 72.961 18.392 L 84.741 18.392 L 84.741 61.408 Q 84.741 66.652 81.701 69.73 Q 78.661 72.808 73.265 72.808 Z M 112.785 58.292 Q 106.781 58.292 101.993 55.632 Q 97.205 52.972 94.431 48.336 Q 91.657 43.7 91.657 37.924 Q 91.657 32.072 94.431 27.474 Q 97.205 22.876 101.993 20.178 Q 106.781 17.48 112.785 17.48 Q 118.789 17.48 123.539 20.178 Q 128.289 22.876 131.063 27.474 Q 133.837 32.072 133.837 37.924 Q 133.837 43.7 131.063 48.336 Q 128.289 52.972 123.501 55.632 Q 118.713 58.292 112.785 58.292 Z M 112.785 48.032 Q 115.597 48.032 117.649 46.664 Q 119.701 45.296 120.841 43.016 Q 121.981 40.736 121.981 37.848 Q 121.981 35.036 120.841 32.756 Q 119.701 30.476 117.649 29.108 Q 115.597 27.74 112.785 27.74 Q 109.973 27.74 107.883 29.108 Q 105.793 30.476 104.653 32.756 Q 103.513 35.036 103.513 37.848 Q 103.513 40.736 104.653 43.016 Q 105.793 45.296 107.883 46.664 Q 109.973 48.032 112.785 48.032 Z M 78.737 13.908 Q 75.925 13.908 73.873 11.856 Q 71.821 9.804 71.821 6.992 Q 71.821 4.18 73.873 2.09 Q 75.925 0 78.737 0 Q 81.549 0 83.601 2.09 Q 85.653 4.18 85.653 6.992 Q 85.653 9.804 83.601 11.856 Q 81.549 13.908 78.737 13.908 Z" vector-effect="non-scaling-stroke"/></g></svg>