<svg width="118.101" height="47.9" viewBox="0 0 118.101 47.9" xmlns="http://www.w3.org/2000/svg"><g id="svgGroup" stroke-linecap="round" fill-rule="evenodd" font-size="9pt" stroke-width="0.25mm" fill="#ffffff"><path d="M 7.75 37.75 L 0 37.75 L 0 22.6 Q 0 19.45 1.475 16.925 Q 2.95 14.4 5.7 12.95 Q 8.45 11.5 12.25 11.5 Q 14.15 11.5 15.75 11.925 Q 17.35 12.35 18.675 13.075 Q 20 13.8 20.95 14.8 L 21.05 14.8 Q 22.05 13.8 23.375 13.075 Q 24.7 12.35 26.325 11.925 Q 27.95 11.5 29.85 11.5 Q 33.65 11.5 36.4 12.95 Q 39.15 14.4 40.65 16.925 Q 42.15 19.45 42.15 22.6 L 42.15 37.75 L 34.35 37.75 L 34.35 22.85 Q 34.35 21.6 33.725 20.575 Q 33.1 19.55 32.05 18.9 Q 31 18.25 29.65 18.25 Q 28.3 18.25 27.225 18.9 Q 26.15 19.55 25.55 20.575 Q 24.95 21.6 24.95 22.85 L 24.95 37.75 L 17.2 37.75 L 17.2 22.85 Q 17.2 21.6 16.575 20.575 Q 15.95 19.55 14.875 18.9 Q 13.8 18.25 12.45 18.25 Q 11.1 18.25 10.025 18.9 Q 8.95 19.55 8.35 20.575 Q 7.75 21.6 7.75 22.85 L 7.75 37.75 Z M 109.3 47.9 L 101.55 47.9 L 101.55 37.9 Q 98.75 37.2 96.75 35.625 Q 94.75 34.05 93.7 31.775 Q 92.65 29.5 92.65 26.85 L 92.65 12.1 L 100.4 12.1 L 100.4 26.6 Q 100.4 27.95 101.05 29.1 Q 101.7 30.25 102.825 30.925 Q 103.95 31.6 105.35 31.6 Q 106.8 31.6 107.925 30.925 Q 109.05 30.25 109.7 29.1 Q 110.35 27.95 110.35 26.6 L 110.35 12.1 L 118.1 12.1 L 118.1 26.85 Q 118.1 29.5 117.075 31.75 Q 116.05 34 114.075 35.6 Q 112.1 37.2 109.3 37.85 L 109.3 47.9 Z M 48.2 47.9 L 40.85 47.9 L 40.85 41.25 L 46.3 41.25 Q 47.05 41.25 47.525 40.775 Q 48 40.3 48 39.6 L 48 12.1 L 55.75 12.1 L 55.75 40.4 Q 55.75 43.85 53.75 45.875 Q 51.75 47.9 48.2 47.9 Z M 74.2 38.35 Q 70.25 38.35 67.1 36.6 Q 63.95 34.85 62.125 31.8 Q 60.3 28.75 60.3 24.95 Q 60.3 21.1 62.125 18.075 Q 63.95 15.05 67.1 13.275 Q 70.25 11.5 74.2 11.5 Q 78.15 11.5 81.275 13.275 Q 84.4 15.05 86.225 18.075 Q 88.05 21.1 88.05 24.95 Q 88.05 28.75 86.225 31.8 Q 84.4 34.85 81.25 36.6 Q 78.1 38.35 74.2 38.35 Z M 74.2 31.6 Q 76.05 31.6 77.4 30.7 Q 78.75 29.8 79.5 28.3 Q 80.25 26.8 80.25 24.9 Q 80.25 23.05 79.5 21.55 Q 78.75 20.05 77.4 19.15 Q 76.05 18.25 74.2 18.25 Q 72.35 18.25 70.975 19.15 Q 69.6 20.05 68.85 21.55 Q 68.1 23.05 68.1 24.9 Q 68.1 26.8 68.85 28.3 Q 69.6 29.8 70.975 30.7 Q 72.35 31.6 74.2 31.6 Z M 51.8 9.15 Q 49.95 9.15 48.6 7.8 Q 47.25 6.45 47.25 4.6 Q 47.25 2.75 48.6 1.375 Q 49.95 0 51.8 0 Q 53.65 0 55 1.375 Q 56.35 2.75 56.35 4.6 Q 56.35 6.45 55 7.8 Q 53.65 9.15 51.8 9.15 Z" vector-effect="non-scaling-stroke"/></g></svg>